<svg width="30" height="30" viewBox="0 0 30 30" fill="none" xmlns="http://www.w3.org/2000/svg">
<path d="M15 0C6.7285 0 0 6.7285 0 15C0 23.2715 6.7285 30 15 30C23.2715 30 30 23.2703 30 15C30 6.72967 23.2715 0 15 0ZM15 27.6762C8.01123 27.6762 2.32377 21.9899 2.32377 15C2.32377 8.01006 8.01123 2.32377 15 2.32377C21.9899 2.32377 27.6762 8.01006 27.6762 15C27.6762 21.9899 21.9888 27.6762 15 27.6762Z" fill="#52A6EF"/>
<path d="M21.6346 16.6034L15.8251 10.794C15.3719 10.3431 14.64 10.3431 14.1868 10.794L8.37737 16.6034C8.00442 17.0379 8.00442 17.6805 8.37737 18.115C8.7945 18.6019 9.5288 18.6588 10.0157 18.2416L15.0002 13.2572L19.9963 18.2417C20.4495 18.6925 21.1814 18.6925 21.6346 18.2417C22.0854 17.7885 22.0854 17.0565 21.6346 16.6034Z" fill="#52A6EF"/>
</svg>
