<svg width="24" height="24" viewBox="0 0 24 24" fill="none" xmlns="http://www.w3.org/2000/svg">
<path d="M3.75 5.25003C3.3375 5.25003 3 5.58753 3 6.00003C3 6.41253 3.3375 6.75003 3.75 6.75003H5.41425L7.383 14.625C7.5495 15.2925 8.148 15.75 8.83575 15.75H17.4375C18.114 15.75 18.6885 15.3015 18.867 14.6483L20.8125 7.50003H8.25L8.625 9.00003H18.867L17.4375 14.25H8.83575L6.867 6.37503C6.78589 6.05201 6.5987 5.76557 6.33543 5.56159C6.07216 5.35761 5.74804 5.2479 5.415 5.25003H3.75ZM16.5 15.75C15.2662 15.75 14.25 16.7663 14.25 18C14.25 19.2338 15.2662 20.25 16.5 20.25C17.7338 20.25 18.75 19.2338 18.75 18C18.75 16.7663 17.7338 15.75 16.5 15.75ZM9.75 15.75C8.51625 15.75 7.5 16.7663 7.5 18C7.5 19.2338 8.51625 20.25 9.75 20.25C10.9837 20.25 12 19.2338 12 18C12 16.7663 10.9837 15.75 9.75 15.75ZM9.75 17.25C10.1722 17.25 10.5 17.5785 10.5 18C10.5 18.4223 10.1715 18.75 9.75 18.75C9.32775 18.75 9 18.4215 9 18C9 17.5778 9.3285 17.25 9.75 17.25ZM16.5 17.25C16.9222 17.25 17.25 17.5785 17.25 18C17.25 18.4223 16.9215 18.75 16.5 18.75C16.0778 18.75 15.75 18.4215 15.75 18C15.75 17.5778 16.0785 17.25 16.5 17.25Z" fill="#1673C5"/>
</svg>
