<svg width="92" height="92" viewBox="0 0 92 92" fill="none" xmlns="http://www.w3.org/2000/svg">
<path d="M29.9821 19.1667C19.7874 19.1667 11.5 27.8268 11.5 38.2586C11.5 41.8988 13.0969 45.0503 14.5804 47.3286C15.4543 48.6778 16.461 49.9301 17.5843 51.0655L44.2257 78.6698L45.9975 80.5001L47.7694 78.6698L74.4132 51.0655C74.4132 51.0655 80.5 45.5263 80.5 38.2586C80.5 27.8268 72.2126 19.1667 62.0179 19.1667C53.5555 19.1667 48.107 24.4259 46 26.6457C43.893 24.4259 38.4445 19.1667 29.9821 19.1667ZM29.9821 24.2579C37.3454 24.2579 44.1518 31.6554 44.1518 31.6554L46 33.8039L47.8482 31.6554C47.8482 31.6554 54.6546 24.2579 62.0179 24.2579C69.5167 24.2579 75.5714 30.6117 75.5714 38.2586C75.5714 42.1865 70.9509 47.4864 70.9509 47.4864L46 73.2604L21.0491 47.4864C21.0491 47.4864 19.8564 46.3027 18.6612 44.4622C17.4685 42.6269 16.4286 40.2289 16.4286 38.2586C16.4286 30.6117 22.4833 24.2579 29.9821 24.2579Z" fill="white"/>
</svg>
