<svg width="92" height="92" viewBox="0 0 92 92" fill="none" xmlns="http://www.w3.org/2000/svg">
<path d="M55.0005 12.9999C55.0005 13.1104 54.9109 13.1999 54.8005 13.1999L38.2 13.1999C38.0895 13.1999 38 13.1104 38 12.9999V5.2C38 5.08954 37.9105 5 37.8 5L29.7 5C29.5895 5 29.5 5.08954 29.5 5.2L29.5 12.9999C29.5 13.1104 29.4105 13.1999 29.3 13.1999L21.2 13.1999C21.0895 13.1999 21 13.2894 21 13.3999L21 21.1999C21 21.3104 21.0895 21.3999 21.2 21.3999L42.0502 21.3999C42.1607 21.3999 42.2502 21.4895 42.2502 21.5999L42.2502 70.4002C42.2502 70.5106 42.1607 70.6002 42.0502 70.6002H21.2C21.0895 70.6002 21 70.6897 21 70.8002L21 78.6002C21 78.7107 21.0895 78.8002 21.2 78.8002H29.3C29.4105 78.8002 29.5 78.8898 29.5 79.0002L29.5 86.8C29.5 86.9105 29.5895 87 29.7 87H37.8C37.9105 87 38 86.9105 38 86.8V79.0002C38 78.8898 38.0895 78.8002 38.2 78.8002L54.8005 78.8002C54.9109 78.8002 55.0005 78.8898 55.0005 79.0002V86.8C55.0005 86.9105 55.09 87 55.2005 87H63.3005C63.4109 87 63.5005 86.9105 63.5005 86.8V79.0002C63.5005 78.8898 63.59 78.8002 63.7005 78.8002H71.8C71.9105 78.8002 72 78.7107 72 78.6002V70.8002C72 70.6897 71.9105 70.6002 71.8 70.6002H50.9502C50.8398 70.6002 50.7502 70.5106 50.7502 70.4002L50.7502 21.5999C50.7502 21.4895 50.8398 21.3999 50.9502 21.3999L71.8 21.3999C71.9105 21.3999 72 21.3104 72 21.1999V13.3999C72 13.2894 71.9105 13.1999 71.8 13.1999L63.7005 13.1999C63.59 13.1999 63.5005 13.1104 63.5005 12.9999V5.2C63.5005 5.08954 63.4109 5 63.3005 5L55.2005 5C55.09 5 55.0005 5.08954 55.0005 5.2V12.9999Z" fill="#A6D1F7"/>
</svg>
