<svg width="92" height="92" viewBox="0 0 92 92" fill="none" xmlns="http://www.w3.org/2000/svg">
<path d="M46.0001 15.3335C43.035 15.3335 40.6334 17.7087 40.6334 20.6412C40.6334 20.8694 40.6871 21.087 40.7166 21.3047C31.4403 23.648 24.5334 31.9811 24.5334 41.872V65.7566C24.5334 67.2587 23.3688 68.4104 21.8501 68.4104H19.1667V73.7181H38.4545C38.1322 74.5672 37.9615 75.4651 37.9501 76.372C37.9501 80.7375 41.586 84.3335 46.0001 84.3335C50.4142 84.3335 54.0501 80.7375 54.0501 76.372C54.0386 75.4651 53.8679 74.5672 53.5456 73.7181H72.8334V68.4104H70.1501C68.6313 68.4104 67.4668 67.2587 67.4668 65.7566V42.6177C67.4668 32.6445 60.7262 23.7488 51.2836 21.3047C51.3131 21.087 51.3668 20.8694 51.3668 20.6412C51.3668 17.7087 48.9652 15.3335 46.0001 15.3335ZM44.8248 25.9489C45.2139 25.917 45.603 25.9489 46.0001 25.9489H46.5046C55.2656 26.209 62.1001 33.8043 62.1001 42.6177V65.7566C62.1001 66.6907 62.2987 67.5718 62.6046 68.4104H29.3983C29.7197 67.5612 29.8895 66.6633 29.9001 65.7566V41.872C29.8924 37.8433 31.4278 33.9612 34.1974 31.0069C36.9669 28.0526 40.765 26.2454 44.8275 25.9489H44.8248ZM46.0001 73.7181C47.5108 73.7181 48.6834 74.8805 48.6834 76.372C48.6834 77.8661 47.5081 79.0258 46.0001 79.0258C44.4894 79.0258 43.3168 77.8634 43.3168 76.372C43.3168 74.8778 44.4921 73.7181 46.0001 73.7181Z" fill="#1673C5"/>
</svg>
