<svg width="92" height="92" viewBox="0 0 92 92" fill="none" xmlns="http://www.w3.org/2000/svg">
<!--<rect width="92" height="92" fill="none"/>-->
<path d="M46 14.375C34.9169 14.375 25.875 23.4169 25.875 34.5C25.875 44.6085 33.3989 52.9518 43.125 54.3548V80.5H48.875V54.3548C58.6011 52.9518 66.125 44.6085 66.125 34.5C66.125 23.4169 57.0831 14.375 46 14.375ZM46 20.125C53.9724 20.125 60.375 26.5276 60.375 34.5C60.375 42.4724 53.9724 48.875 46 48.875C38.0276 48.875 31.625 42.4724 31.625 34.5C31.625 26.5276 38.0276 20.125 46 20.125ZM46 23C39.675 23 34.5 28.175 34.5 34.5H40.25C40.25 31.2886 42.7886 28.75 46 28.75V23Z" fill="#1673C5"/>
</svg>
