<svg width="92" height="92" viewBox="0 0 92 92" fill="none" xmlns="http://www.w3.org/2000/svg">
<path d="M46 8.625C25.392 8.625 8.625 25.392 8.625 46C8.625 66.608 25.392 83.375 46 83.375C66.608 83.375 83.375 66.608 83.375 46C83.375 25.392 66.608 8.625 46 8.625ZM46 14.375C63.4972 14.375 77.625 28.5028 77.625 46C77.625 63.4972 63.4972 77.625 46 77.625C28.5028 77.625 14.375 63.4972 14.375 46C14.375 28.5028 28.5028 14.375 46 14.375ZM46 23C38.0938 23 31.625 29.4688 31.625 37.375C31.625 41.7335 33.6576 45.6061 36.7454 48.2454C33.4693 49.9437 30.7229 52.5095 28.8058 55.6626C26.8888 58.8157 25.875 62.4349 25.875 66.125H31.625C31.625 58.1526 38.0276 51.75 46 51.75C53.9724 51.75 60.375 58.1526 60.375 66.125H66.125C66.125 58.3625 61.7234 51.6063 55.2546 48.2454C58.3424 45.6061 60.375 41.7335 60.375 37.375C60.375 29.4688 53.9062 23 46 23ZM46 28.75C50.7955 28.75 54.625 32.5795 54.625 37.375C54.625 42.1705 50.7955 46 46 46C41.2045 46 37.375 42.1705 37.375 37.375C37.375 32.5795 41.2045 28.75 46 28.75Z" fill="#A6D1F7"/>
</svg>
