<svg width="26" height="27" viewBox="0 0 26 27" fill="none" xmlns="http://www.w3.org/2000/svg">
<path d="M23.6216 6.16336H23.2981V2.76702C23.2981 1.34955 22.2314 0.196289 20.9201 0.196289H3.6727C1.76943 0.196289 0.200179 1.77008 0.0190299 3.77704C-0.00863508 3.91885 0.0012161 2.65523 0.0012161 22.2272C0.0012161 24.4158 1.6482 26.1963 3.67264 26.1963H23.6215C24.9328 26.1963 25.9995 25.0431 25.9995 23.6256V8.73409C25.9996 7.31662 24.9328 6.16336 23.6216 6.16336V6.16336ZM3.6727 1.96211H20.9201C21.3307 1.96211 21.6647 2.32321 21.6647 2.76708V6.16341H3.6727C2.58075 6.16341 1.68684 5.23015 1.63702 4.06276C1.68679 2.89532 2.58069 1.96211 3.6727 1.96211V1.96211ZM23.6216 24.4305H3.6727C2.5489 24.4305 1.63462 23.4421 1.63462 22.2272V7.26001C2.21809 7.68252 2.91921 7.92912 3.6727 7.92912H23.6216C24.0322 7.92912 24.3662 8.29022 24.3662 8.73409V12.3134H18.2203C16.1272 12.3134 14.4243 14.1543 14.4243 16.417C14.4243 18.6798 16.1272 20.5207 18.2203 20.5207H24.3662V23.6256C24.3662 24.0694 24.0322 24.4305 23.6216 24.4305V24.4305ZM24.3662 18.755H18.2203C17.0278 18.755 16.0577 17.7062 16.0577 16.4171C16.0577 15.128 17.0278 14.0792 18.2203 14.0792H24.3662V18.755Z" fill="#D4D4D4"/>
</svg>
